<svg xmlns="http://www.w3.org/2000/svg" width="5000" height="640" viewBox="0 0 5000 640" style="background:#000">
  <style>
@keyframes pulse {
  0% { opacity: 0; }
  40% { opacity: 0; }
  50% { opacity: 1; }
  90% { opacity: 1; }
  100% { opacity: 0; }
}
rect {
  animation: pulse 1s ease-in infinite;
}
  </style>
  <g fill="none" fill-rule="evenodd">
    <rect width="339.089" height="480" x="2440" y="80" fill="#FFFFFF"/>
    <path fill="#FFFFFF" d="M809.36,411.24 C786.68,411.24 773.18,399.36 773.18,379.38 C773.18,356.16 785.6,342.12 855.26,349.68 C855.8,367.5 855.8,383.16 856.88,396.66 C841.22,405.84 823.94,411.24 809.36,411.24 Z M865.52,464.16 L936.26,460.38 C933.56,423.66 930.32,376.14 930.32,327 C930.32,218.46 890.9,183.36 719.18,182.82 L712.16,247.08 C824.48,249.78 850.94,259.5 854.72,301.08 C744.02,298.92 697.04,344.28 697.04,397.74 C697.04,442.02 729.98,469.02 778.04,469.02 C814.22,469.02 840.68,452.82 860.12,433.38 L865.52,464.16 Z M1161.98,463.62 L1233.26,459.84 C1229.48,398.28 1228.4,315.12 1228.4,188.76 L1151.72,188.76 C1151.72,270.3 1152.26,339.96 1153.34,391.26 C1140.92,399.36 1127.96,404.22 1112.3,404.22 C1090.16,404.22 1075.58,391.8 1075.58,347.52 L1075.58,186.6 L998.9,190.92 L998.9,375.6 C998.9,442.02 1027.52,469.56 1074.5,469.56 C1111.22,469.56 1137.68,452.82 1158.2,433.38 L1161.98,463.62 Z M1415.24,246.54 C1437.38,246.54 1451.96,258.96 1451.96,302.7 L1451.96,462 L1528.64,462 L1528.64,275.16 C1528.64,208.74 1499.48,181.2 1453.04,181.2 C1416.32,181.2 1389.86,197.94 1369.34,217.38 L1365.56,187.14 L1294.28,190.92 C1298.06,251.94 1299.14,335.64 1299.14,462 L1375.82,462 C1375.82,381 1374.74,311.34 1373.66,259.5 C1386.08,251.4 1399.58,246.54 1415.24,246.54 Z M1812.14,465.78 L1820.24,403.14 C1745.18,401.52 1719.8,393.96 1719.8,355.62 L1719.8,246.54 L1814.84,246.54 L1814.84,188.76 L1719.8,188.76 L1719.8,110.46 L1643.66,117.48 L1643.66,188.76 L1595.06,188.76 L1588.58,246.54 L1643.66,246.54 L1643.66,367.5 C1643.66,440.4 1684.16,469.02 1812.14,465.78 Z M1895.84,557.58 C2000.6,550.56 2031.92,524.64 2074.04,400.98 C2099.42,328.08 2124.26,245.46 2140.46,188.76 L2066.48,188.76 L2017.34,373.44 L2011.94,373.44 C1991.96,322.14 1966.04,236.82 1948.22,186.06 L1869.92,191.46 C1884.5,233.04 1946.06,397.2 1964.96,442.56 L1981.16,450.12 C1967.66,478.2 1948.76,481.44 1889.9,489 L1895.84,557.58 Z"/>
    <path fill="#FCC34E" d="M78.7918993,150.932141 C96.5215479,150.932141 119.135439,157.034054 133.6388,174.522448 C140.106313,180.610269 152.99653,210.302489 152.99653,210.302489 L227.216096,396.02331 C236.909898,418.091661 265.13992,419.613616 274.012213,397.531173 L296.596231,338.921802 L336.133199,437.116102 C316.775469,469.852233 298.224312,477.447917 276.431929,485.057693 C250.606686,492.681562 219.956948,490.384537 198.179502,477.447917 C190.920353,472.882051 171.562623,461.481479 158.657471,431.789258 L81.2116153,225.50795 L81.2116153,413.525795 L110.24821,334.370029 L147.350525,433.297122 C142.511092,455.393658 124.766507,474.404006 104.587269,483.535738 C82.0032509,493.44254 56.1929449,489.637651 36.028643,478.208894 C15.8643412,463.75032 10.2183368,447.769789 9.41176471,418.091661 L9.41176471,215.629333 C11.8165444,181.371247 35.2071344,163.107783 55.3863725,154.737029 C64.2736018,151.693119 68.3064625,150.932141 78.7918993,150.932141 M420.03163,488.862582 C402.272108,489.637651 380.509599,482.77476 365.169793,466.01916 C358.717216,459.945431 345.812064,430.253211 345.812064,430.253211 L271.592497,243.785505 C262.735141,221.717154 233.668673,220.195198 225.602952,242.26355 L202.212362,300.87292 L162.690331,203.439598 C182.04806,170.71756 200.599218,162.346806 222.3916,154.737029 C248.18697,147.127253 278.851645,150.171163 300.644028,162.346806 C307.88824,166.912671 327.260906,179.102406 340.166059,208.780534 L418.418486,414.272681 L418.418486,227.029905 L388.57532,306.199764 L351.443131,207.244486 C357.104072,184.415157 374.042086,165.376624 394.206387,156.244892 C416.805342,146.366275 443.42222,150.171163 462.794886,162.346806 C482.94425,176.044403 488.605192,192.785911 489.411765,221.717154 L489.411765,424.912275 C486.977114,458.423476 464.40803,476.686939 444.243729,485.057693 C434.549928,488.101604 430.517067,488.862582 420.03163,488.862582" transform="rotate(90 249.412 320)"/>
  </g>
</svg>
